<svg width="18" height="16" viewBox="0 0 18 16" fill="none" xmlns="http://www.w3.org/2000/svg">
<path d="M9.26572 11.6667H14.8455M16.3334 14.7778L14.8455 11.6667L12.6169 7.00699C12.4373 6.63156 12.3476 6.4438 12.2247 6.38446C12.1179 6.33289 11.9933 6.33289 11.8865 6.38446C11.7636 6.4438 11.6739 6.63156 11.4943 7.00699L9.26572 11.6667L7.77783 14.7778M0.777832 2.33333H5.4445M5.4445 2.33333H8.16672M5.4445 2.33333V0.777771M8.16672 2.33333H10.1112M8.16672 2.33333C7.78087 4.63344 6.8854 6.71704 5.57326 8.46564M5.57326 8.46564C6.03767 8.82163 6.52364 9.11928 7.00005 9.33333M5.57326 8.46564C4.52129 7.65939 3.57998 6.55402 3.11117 5.44444M5.57326 8.46564C4.32517 10.1289 2.70006 11.4892 0.777832 12.4444" stroke="white" stroke-width="1.55556" stroke-linecap="round" stroke-linejoin="round"/>
</svg>
